<?xml version="1.0" standalone="no"?>
<!DOCTYPE svg PUBLIC "-//W3C//DTD SVG 20010904//EN"
 "http://www.w3.org/TR/2001/REC-SVG-20010904/DTD/svg10.dtd">
<svg version="1.0" xmlns="http://www.w3.org/2000/svg"
 width="1024.000000pt" height="1024.000000pt" viewBox="0 0 1024.000000 1024.000000"
 preserveAspectRatio="xMidYMid meet">
<metadata>
Created by potrace 1.16, written by Peter Selinger 2001-2019
</metadata>
<g transform="translate(0.000000,1024.000000) scale(0.100000,-0.100000)"
fill="#000000" stroke="none">
<path d="M2749 9256 c-2 -2 -44 -7 -93 -11 -50 -4 -97 -8 -106 -10 -9 -2 -43
-6 -75 -10 -141 -17 -354 -73 -490 -129 -337 -140 -604 -386 -771 -712 -112
-221 -176 -469 -201 -784 -10 -123 -10 -4855 0 -4980 47 -595 283 -1045 696
-1321 218 -147 462 -235 781 -283 19 -3 87 -9 150 -13 149 -10 4814 -10 4945
0 207 15 402 53 566 108 152 51 362 165 471 256 118 97 143 121 207 197 182
215 295 456 355 756 25 125 29 155 46 325 9 100 8 4968 -2 5000 -3 11 -9 52
-13 90 -3 39 -10 88 -15 110 -5 22 -12 56 -15 75 -12 70 -46 193 -79 283 -161
445 -495 773 -945 927 -149 51 -336 93 -476 106 -38 4 -83 9 -100 12 -34 6
-4829 14 -4836 8z m241 -2726 c198 -57 309 -178 344 -376 12 -70 19 -323 10
-349 -3 -6 -89 -10 -231 -10 l-228 0 -1 102 c-3 154 -25 200 -111 222 -44 12
-88 8 -136 -11 -67 -26 -90 -173 -43 -273 28 -61 108 -137 236 -224 298 -203
414 -310 479 -443 63 -128 75 -189 74 -358 -2 -222 -47 -363 -148 -465 -113
-112 -288 -168 -530 -167 -299 1 -494 96 -579 283 -46 99 -59 179 -60 369 l-1
175 237 0 238 0 1 -40 c3 -192 7 -234 25 -271 30 -62 103 -89 193 -72 83 15
124 76 125 183 1 136 -60 214 -300 379 -281 195 -383 289 -441 407 -57 115
-68 175 -67 359 0 151 3 172 27 245 62 188 181 295 377 340 41 9 80 19 85 20
6 2 87 2 180 0 138 -2 184 -7 245 -25z m4800 0 c104 -30 183 -75 236 -134 107
-119 134 -236 125 -551 l-1 -50 -227 0 -228 0 -5 110 c-8 173 -43 219 -165
220 -109 0 -150 -46 -150 -170 0 -139 40 -189 290 -364 308 -216 392 -297 459
-442 52 -112 65 -190 61 -359 -3 -162 -22 -250 -77 -353 -104 -195 -370 -287
-726 -253 -199 19 -363 111 -435 244 -54 99 -70 189 -71 392 l-1 185 235 0
235 0 5 -145 c6 -164 17 -197 80 -227 48 -23 139 -21 182 4 54 31 73 76 73
168 0 146 -51 210 -307 388 -345 240 -425 329 -479 535 -29 109 -29 325 0 434
56 215 181 330 417 382 104 23 373 16 474 -14z m-3849 -62 c0 -35 2 -70 3 -78
2 -8 6 -68 10 -133 4 -65 9 -126 11 -135 1 -9 6 -60 10 -112 4 -52 8 -102 10
-110 2 -8 6 -64 10 -125 4 -60 9 -117 10 -125 2 -8 6 -62 10 -120 4 -58 8
-107 10 -110 2 -3 6 -66 10 -140 4 -74 9 -142 11 -150 1 -8 3 -49 3 -90 1 -40
5 -70 9 -65 5 6 14 57 21 115 7 58 14 121 17 140 7 60 44 334 49 360 2 14 18
124 35 245 36 251 33 230 60 435 12 85 23 164 25 175 2 11 4 35 4 53 l1 32
224 0 223 0 12 -92 c7 -51 14 -104 16 -118 2 -14 9 -61 15 -105 6 -44 13 -91
15 -105 2 -14 11 -74 20 -135 9 -60 18 -126 21 -145 3 -19 18 -125 34 -235 15
-110 31 -220 34 -245 19 -144 25 -203 32 -270 4 -41 10 -84 15 -95 l8 -20 1
20 c1 11 3 27 4 35 2 8 6 84 10 168 4 84 9 160 10 170 2 9 7 73 11 141 4 69 8
132 10 140 2 9 6 66 10 126 4 61 8 121 10 135 2 14 7 72 10 130 4 58 9 112 10
120 2 8 6 62 10 120 4 58 9 113 11 123 1 10 4 44 5 77 l2 60 249 0 250 0 -6
-42 c-15 -113 -55 -430 -61 -483 -6 -57 -9 -84 -20 -157 -6 -49 -64 -515 -71
-573 -3 -27 -7 -61 -9 -75 -2 -14 -7 -50 -10 -80 -3 -30 -8 -66 -10 -80 -4
-26 -41 -337 -51 -425 -3 -27 -7 -61 -9 -75 -13 -84 -35 -261 -37 -292 -1 -21
-7 -38 -13 -39 -42 -2 -547 0 -550 3 -2 2 -8 39 -14 83 -6 44 -13 91 -16 105
-4 22 -106 702 -119 790 -8 52 -43 307 -52 370 -7 53 -8 54 -15 21 -4 -19 -10
-62 -13 -95 -4 -34 -8 -68 -11 -76 -2 -8 -6 -37 -10 -65 -3 -27 -17 -124 -30
-215 -13 -91 -27 -187 -31 -215 -3 -27 -8 -57 -9 -65 -2 -9 -6 -43 -10 -75 -4
-33 -9 -67 -10 -75 -2 -8 -8 -51 -15 -95 -6 -44 -13 -91 -15 -105 -7 -40 -36
-253 -38 -272 -1 -21 16 -20 -282 -20 -295 0 -292 0 -292 15 0 21 -13 151 -18
177 -4 23 -7 44 -20 148 -2 20 -9 75 -15 122 -6 47 -13 101 -15 120 -14 112
-67 529 -70 550 -2 14 -6 52 -10 85 -3 33 -8 71 -10 85 -2 14 -6 45 -9 70 -10
79 -47 364 -51 390 -2 14 -6 48 -9 75 -3 28 -13 109 -21 180 -20 172 -23 191
-30 253 l-7 52 251 0 251 0 1 -62z m2849 -153 l0 -215 -310 0 -310 0 2 -242 3
-243 250 -1 c138 -1 253 -2 256 -3 3 0 5 -11 3 -23 -1 -13 -3 -110 -3 -215
l-1 -193 -255 0 -255 0 2 -267 3 -268 310 -1 310 -1 0 -218 0 -218 -560 -1
-560 0 0 1162 -1 1162 558 0 558 0 0 -215z"/>
</g>
</svg>
